<?xml version="1.0" standalone="no"?>
<!DOCTYPE svg PUBLIC "-//W3C//DTD SVG 20010904//EN"
 "http://www.w3.org/TR/2001/REC-SVG-20010904/DTD/svg10.dtd">
<svg version="1.0" xmlns="http://www.w3.org/2000/svg"
 width="880.000000pt" height="880.000000pt" viewBox="0 0 880.000000 880.000000"
 preserveAspectRatio="xMidYMid meet">
<metadata>
Created by potrace 1.14, written by Peter Selinger 2001-2017
</metadata>
<g transform="translate(0.000000,880.000000) scale(0.100000,-0.100000)"
fill="#000000" stroke="none">
<path d="M4163 8503 c-21 -4 -30 -20 -36 -64 -2 -8 -7 -20 -11 -28 -6 -9 -5
-12 1 -8 13 8 36 -41 27 -55 -4 -7 -2 -8 4 -4 17 10 15 -19 -2 -34 -8 -6 -30
-14 -48 -17 -18 -3 -36 -9 -39 -15 -3 -5 -9 -9 -13 -9 -16 2 -17 0 -6 -15 11
-12 11 -15 -1 -12 -10 2 -14 -8 -14 -34 0 -21 2 -38 5 -38 13 0 119 -107 113
-113 -3 -4 -1 -7 6 -7 7 0 19 -7 27 -15 9 -8 13 -15 10 -15 -3 0 10 -17 29
-37 18 -20 40 -48 47 -62 7 -14 15 -28 18 -31 14 -14 109 -129 133 -161 15
-20 24 -39 20 -42 -3 -4 -2 -7 4 -7 12 0 51 -69 64 -115 9 -29 22 -129 22
-170 0 -34 -12 -104 -21 -123 -5 -9 -9 -32 -8 -50 0 -19 -3 -36 -8 -39 -5 -4
-6 0 -1 7 6 9 4 11 -4 6 -9 -6 -8 -12 4 -26 15 -17 15 -18 -2 -16 -10 0 -18
-6 -18 -14 0 -8 -4 -18 -10 -22 -5 -4 1 -8 15 -9 21 -1 22 -2 5 -6 -11 -3 -29
-12 -39 -22 -11 -9 -16 -10 -12 -3 4 6 4 12 -1 13 -91 6 -113 3 -114 -16 -1
-17 -2 -17 -6 -2 -4 16 -16 17 -126 13 -67 -2 -122 -5 -122 -6 0 -1 -11 -3
-25 -5 -14 -2 -45 -6 -70 -10 -25 -4 -54 -8 -66 -9 -11 -1 -26 -6 -33 -10 -7
-4 -27 -10 -44 -13 -18 -3 -36 -6 -42 -7 -5 -1 -16 -5 -23 -10 -7 -4 -19 -2
-28 5 -12 10 -13 9 -8 -5 4 -11 1 -16 -13 -16 -11 0 -23 -3 -27 -7 -8 -8 -25
-12 -80 -19 -22 -3 -58 -14 -80 -25 -22 -10 -46 -19 -54 -19 -7 0 -27 -13 -43
-29 -16 -16 -29 -26 -29 -22 0 4 6 13 13 20 10 10 7 10 -16 0 -16 -7 -26 -18
-23 -25 3 -8 0 -16 -6 -20 -6 -4 -8 -3 -5 3 4 6 1 13 -7 16 -8 3 -17 -1 -20
-9 -3 -9 -11 -12 -18 -8 -7 5 -9 2 -6 -8 4 -8 2 -21 -4 -29 -8 -11 -9 -10 -4
4 3 9 1 17 -4 17 -6 0 -10 -4 -10 -9 0 -4 -18 -20 -39 -34 -38 -25 -40 -25
-46 -8 -9 29 -35 35 -36 8 -1 -17 -2 -18 -6 -4 -3 10 1 24 7 32 10 12 8 13
-10 10 -17 -3 -19 -1 -11 8 7 10 5 18 -9 29 -10 9 -21 13 -25 10 -3 -4 -3 1 1
11 4 12 1 17 -12 17 -11 0 -26 5 -34 11 -12 8 -10 9 8 4 13 -4 22 -2 22 4 0 6
-4 11 -10 11 -5 0 -10 7 -10 16 0 9 -6 14 -13 11 -8 -3 -20 -1 -28 5 -11 8
-10 9 4 4 12 -4 17 -2 14 6 -2 7 -13 12 -23 10 -15 -2 -16 -1 -5 7 12 8 12 13
-3 35 -9 14 -13 26 -9 26 5 0 3 4 -4 8 -6 4 -14 20 -17 35 -2 14 -8 32 -12 38
-4 7 -3 9 4 5 14 -8 9 21 -6 36 -7 7 -8 17 -2 29 6 11 6 20 1 23 -5 3 -7 15
-4 26 3 11 -1 28 -8 37 -8 9 -9 14 -3 10 12 -7 13 70 1 89 -3 6 -3 14 0 18 4
3 8 39 9 78 1 45 6 74 13 76 9 3 9 7 0 18 -7 9 -8 14 -1 14 6 0 9 8 7 18 -1 9
0 22 4 27 3 6 6 12 6 15 2 18 42 107 53 119 7 7 11 20 8 28 -4 9 -2 11 6 7 8
-5 9 -2 5 9 -3 10 -2 17 2 17 5 0 8 8 6 18 -1 9 2 22 7 28 5 7 8 16 7 20 -1 5
0 12 1 17 1 4 4 12 5 17 1 6 3 11 5 13 2 3 6 23 13 64 3 17 8 36 11 42 3 5 0
11 -6 14 -10 4 -11 7 0 18 6 7 12 20 12 28 0 14 -1 14 -10 1 -5 -8 -10 -10
-10 -4 0 5 5 15 12 22 9 9 9 12 0 12 -7 0 -11 5 -9 11 3 15 -74 58 -93 51 -8
-3 -24 -12 -35 -21 -12 -9 -15 -10 -8 -2 10 11 9 17 -5 28 -9 8 -12 12 -6 9 7
-3 14 1 18 9 3 8 1 15 -4 15 -6 0 -9 3 -7 8 1 4 -1 7 -5 7 -4 0 -13 9 -21 19
-9 12 -20 17 -31 13 -9 -4 -16 -3 -16 1 0 4 -16 8 -36 8 -20 1 -31 -2 -24 -6
8 -5 6 -10 -7 -15 -10 -5 -21 -7 -25 -7 -4 1 -11 -10 -14 -24 -4 -16 -12 -23
-20 -20 -8 3 -14 1 -14 -4 0 -6 -9 -19 -20 -30 -11 -11 -20 -18 -20 -15 0 3
-21 -19 -47 -49 -27 -31 -54 -52 -62 -50 -10 3 -11 1 -3 -8 12 -15 -29 -83
-43 -70 -5 4 -5 2 -2 -5 9 -15 -2 -45 -14 -37 -5 3 -6 -2 -3 -10 3 -9 2 -16
-4 -16 -6 0 -13 -13 -17 -30 -4 -16 -11 -30 -16 -30 -5 0 -8 -3 -7 -7 3 -17
-15 -83 -21 -78 -4 2 -8 -2 -8 -10 0 -8 4 -12 9 -9 4 3 5 -2 2 -10 -3 -9 -11
-13 -17 -9 -6 3 -7 1 -3 -6 5 -7 5 -24 2 -37 -6 -22 -9 -24 -23 -12 -15 12
-15 11 -2 -10 12 -19 12 -24 0 -31 -11 -7 -11 -9 0 -13 11 -4 11 -8 2 -19 -7
-8 -14 -30 -17 -49 -14 -91 -16 -106 -22 -120 -3 -8 -7 -31 -10 -50 -2 -19 -7
-46 -9 -60 -9 -46 -18 -135 -19 -192 0 -32 -5 -58 -11 -58 -7 0 -7 -3 0 -8 6
-4 11 -41 11 -82 1 -64 8 -143 14 -160 2 -3 2 -8 1 -12 0 -5 4 -8 10 -8 8 0 8
-5 -1 -15 -7 -8 -8 -15 -3 -15 5 0 9 -10 8 -22 -1 -13 3 -29 9 -37 9 -12 8
-13 -4 -6 -12 7 -13 6 -4 -6 15 -20 36 -98 29 -109 -3 -5 0 -12 6 -16 8 -4 7
-9 -2 -15 -11 -7 -10 -9 5 -9 15 0 16 -3 6 -15 -10 -12 -10 -15 4 -15 9 0 16
-5 16 -11 0 -5 -4 -7 -10 -4 -6 3 -7 -1 -4 -9 3 -9 10 -16 15 -16 5 0 9 -10 9
-23 0 -13 6 -29 13 -36 10 -11 9 -12 -1 -6 -10 5 -11 3 -4 -11 5 -11 15 -31
22 -46 7 -15 17 -25 22 -22 4 3 8 -4 8 -15 0 -12 5 -21 11 -21 5 0 7 -4 4 -10
-3 -5 1 -10 9 -10 9 0 16 -6 16 -12 0 -7 16 -30 36 -50 19 -21 32 -38 27 -38
-4 0 3 -7 15 -16 12 -8 22 -19 22 -24 0 -11 148 -160 159 -160 5 0 12 -7 15
-16 3 -8 11 -12 17 -8 8 4 9 -1 4 -17 -3 -13 -3 -19 2 -12 6 8 12 8 25 -1 10
-7 15 -16 11 -19 -3 -4 -1 -7 6 -7 7 0 10 -4 6 -9 -3 -5 4 -13 16 -16 13 -4
18 -12 15 -21 -3 -8 -2 -12 3 -9 8 4 24 -25 26 -47 0 -4 8 -17 18 -28 10 -12
14 -26 11 -33 -4 -7 -4 -9 1 -5 5 5 15 -1 22 -12 8 -11 18 -18 22 -16 4 3 12
-8 18 -25 9 -22 8 -28 0 -23 -7 3 -4 -1 5 -9 10 -8 15 -17 11 -20 -3 -4 -1 -7
5 -7 6 0 9 -7 6 -15 -4 -8 -2 -15 3 -15 8 0 10 -8 15 -64 1 -14 6 -22 10 -20
7 5 12 -19 11 -53 -1 -7 3 -13 9 -13 5 0 7 -4 3 -9 -3 -5 -1 -12 5 -16 6 -4 8
-10 5 -15 -3 -5 -1 -11 5 -15 5 -3 10 -15 10 -25 0 -11 9 -28 21 -39 13 -11
18 -24 14 -32 -5 -7 -4 -10 3 -5 12 7 26 -29 17 -44 -4 -6 -1 -9 7 -8 7 2 12
-5 12 -14 -1 -10 2 -18 7 -18 5 0 9 -7 9 -16 0 -9 -5 -12 -12 -8 -7 4 -8 3 -4
-5 4 -6 11 -9 15 -7 4 3 18 -17 30 -44 12 -26 42 -66 66 -88 24 -22 41 -43 37
-47 -4 -5 -1 -5 6 -1 7 4 15 1 18 -8 3 -9 12 -16 20 -16 8 0 14 -4 14 -10 0
-5 7 -10 16 -10 8 0 12 -4 9 -10 -3 -5 -1 -10 5 -10 25 0 4 -56 -34 -90 -95
-86 -136 -129 -136 -145 0 -9 -4 -13 -10 -10 -5 3 -10 -2 -10 -13 0 -10 -9
-29 -20 -42 -11 -12 -17 -27 -14 -31 3 -5 1 -9 -4 -9 -6 0 -15 -14 -21 -30 -5
-17 -15 -30 -21 -30 -6 0 -9 -4 -6 -9 3 -5 -1 -25 -9 -44 -8 -19 -11 -37 -8
-41 4 -3 1 -6 -4 -6 -12 0 -11 -38 1 -61 4 -8 1 -6 -7 3 -8 10 -17 15 -20 11
-4 -3 -2 -12 4 -20 9 -10 8 -13 -5 -13 -19 0 -21 -11 -3 -29 10 -11 9 -13 -6
-8 -10 4 -16 3 -12 -2 3 -5 2 -11 -2 -14 -5 -2 -3 -3 2 -2 6 2 17 -5 25 -13
13 -14 12 -15 -3 -9 -14 5 -16 2 -13 -18 2 -13 1 -25 -4 -27 -5 -2 -10 -22
-11 -46 -2 -24 -6 -45 -10 -48 -4 -2 -6 -15 -4 -29 1 -14 -1 -25 -5 -25 -8 0
-26 -96 -22 -112 1 -5 -2 -8 -7 -8 -5 0 -12 -18 -16 -40 -4 -25 -11 -38 -17
-33 -7 3 -8 1 -4 -6 4 -6 3 -17 -2 -24 -5 -7 -9 -26 -8 -43 1 -22 -3 -30 -12
-26 -9 3 -11 -3 -8 -22 3 -14 1 -26 -3 -26 -3 0 -7 -10 -8 -22 -1 -11 -7 -24
-13 -28 -7 -4 -12 -11 -12 -16 0 -10 -14 -50 -28 -79 -75 -166 -142 -281 -184
-319 -12 -10 -20 -22 -19 -26 1 -4 -9 -13 -22 -20 -14 -7 -27 -21 -30 -31 -3
-10 -15 -21 -26 -24 -10 -4 -20 -11 -20 -16 -1 -5 -2 -13 -3 -19 0 -5 -5 -10
-9 -9 -14 2 -67 -53 -67 -68 0 -8 -4 -11 -10 -8 -5 3 -10 -2 -10 -13 0 -24
-59 -71 -124 -98 -39 -17 -80 -23 -171 -27 -151 -6 -225 -22 -225 -47 0 -6 -4
-8 -10 -5 -5 3 -10 -1 -10 -10 0 -9 4 -14 9 -11 5 3 11 -4 14 -15 4 -14 10
-18 19 -13 20 13 38 13 38 2 0 -6 -7 -8 -15 -4 -8 3 -15 1 -15 -5 0 -6 -7 -9
-15 -5 -8 3 -15 2 -15 -3 0 -5 -77 -8 -171 -7 -166 1 -181 -1 -185 -31 -3 -18
23 -36 41 -29 9 3 14 2 10 -3 -3 -5 1 -12 7 -14 12 -5 -1 -8 -65 -12 -15 -1
-30 -5 -33 -8 -4 -4 -14 -2 -24 3 -10 5 -20 6 -24 3 -10 -10 -76 -10 -76 0 0
5 -6 4 -14 -2 -7 -6 -22 -8 -32 -4 -31 12 -82 6 -99 -11 -9 -9 -11 -16 -5 -16
6 0 9 -4 6 -9 -3 -4 6 -21 19 -37 14 -16 25 -35 25 -41 0 -7 5 -13 12 -13 9 0
9 -3 0 -12 -16 -16 13 -49 36 -41 10 4 13 2 8 -5 -4 -8 -2 -10 7 -6 8 3 18 1
22 -5 3 -6 17 -11 31 -11 33 0 30 -12 -8 -35 -78 -46 -168 -153 -168 -200 0
-17 4 -24 12 -19 8 5 9 2 5 -10 -7 -18 4 -15 35 12 9 7 22 11 29 6 8 -5 10 -3
4 6 -6 10 -4 12 10 6 16 -6 16 -4 4 11 -13 15 -12 15 6 5 16 -8 24 -7 40 6 16
14 17 14 7 1 -9 -13 -9 -16 3 -16 8 0 15 3 15 7 0 4 6 7 13 8 6 0 22 3 35 6
30 7 28 -2 -4 -14 -22 -9 -24 -13 -14 -25 7 -9 15 -13 19 -10 3 3 -1 10 -9 15
-19 12 -8 13 23 1 14 -6 28 -7 32 -3 7 8 140 12 166 5 10 -3 16 -9 13 -14 -3
-5 0 -9 6 -9 6 0 8 -5 5 -10 -4 -6 -11 -8 -16 -5 -5 4 -9 1 -9 -5 0 -6 -4 -8
-10 -5 -5 3 -19 1 -30 -5 -11 -6 -20 -7 -20 -3 0 5 -15 9 -32 10 -51 4 -58 6
-58 16 0 5 -7 4 -15 -3 -11 -9 -15 -9 -15 -1 0 7 -5 9 -10 6 -6 -4 -7 -12 -3
-18 4 -7 0 -7 -10 1 -9 8 -22 10 -28 6 -8 -4 -9 -3 -5 4 7 11 -7 17 -29 12
-14 -3 -39 -8 -45 -9 -3 -1 0 -5 5 -9 6 -4 16 -19 24 -34 8 -15 18 -25 22 -22
4 2 10 0 14 -5 6 -11 121 -67 155 -76 30 -7 90 -19 110 -21 14 -1 25 -3 25 -4
0 -1 34 -3 75 -4 41 -1 81 -6 89 -10 8 -5 12 -5 8 0 -3 5 25 10 61 11 91 4
125 7 140 16 6 5 12 6 12 3 0 -2 26 2 58 9 33 8 70 16 83 19 13 3 53 12 88 21
35 8 66 13 69 11 2 -3 12 -1 21 4 31 16 49 -13 29 -45 -8 -14 -20 -98 -21
-152 -1 -24 -5 -43 -10 -43 -4 0 -5 -6 0 -12 7 -13 9 -18 11 -50 1 -10 10 -18
20 -18 14 0 15 -2 2 -10 -12 -7 -10 -9 7 -7 12 0 19 5 17 9 -3 4 -1 8 3 8 12
0 44 56 36 64 -3 3 -2 6 4 6 6 0 23 19 38 43 16 23 46 59 67 81 20 21 35 43
32 48 -3 4 -2 7 3 6 14 -4 54 23 48 33 -4 5 -3 8 2 7 13 -4 73 32 73 43 0 6 6
9 14 6 8 -3 17 1 20 9 3 9 10 13 15 10 5 -4 11 -1 13 4 2 6 13 12 26 13 12 0
22 5 22 9 0 4 9 5 20 3 11 -2 20 0 20 6 0 5 5 9 11 9 5 0 7 -6 4 -12 -4 -7 -1
-6 7 3 7 9 19 14 26 12 6 -3 12 1 12 8 0 7 3 9 7 6 3 -4 17 0 31 9 13 9 21 11
18 5 -4 -6 -2 -11 3 -11 6 0 11 7 11 15 0 9 6 12 17 8 11 -4 14 -3 9 5 -4 7
-1 12 8 12 8 0 17 -6 19 -12 3 -7 6 -2 6 12 1 20 3 22 11 10 8 -13 10 -13 10
2 0 12 5 15 17 11 10 -4 14 -2 10 4 -4 6 0 14 9 17 10 4 13 2 9 -7 -4 -6 3 -1
15 13 12 14 19 19 15 13 -3 -7 -1 -13 4 -13 6 0 11 7 11 15 0 13 2 13 14 3 8
-7 11 -15 7 -18 -3 -3 -7 -21 -8 -40 -1 -19 -4 -73 -7 -120 -26 -431 -27
-1036 -2 -1435 4 -78 4 -75 21 -75 8 0 15 -4 15 -10 0 -5 -6 -8 -12 -6 -7 1
-10 1 -5 -1 4 -3 4 -10 1 -15 -5 -7 -2 -8 5 -4 8 5 12 3 10 -5 -3 -29 2 -36
26 -36 26 0 33 11 13 23 -6 4 -8 3 -5 -3 3 -5 0 -10 -8 -10 -8 0 -11 5 -8 10
4 6 1 7 -7 2 -9 -6 -11 -4 -6 4 5 7 11 10 14 7 3 -3 11 -1 19 5 11 10 11 15 1
28 -12 14 -11 14 5 2 13 -10 15 -17 6 -27 -8 -10 -8 -14 0 -14 6 0 11 3 12 8
0 4 2 15 4 24 2 10 -1 18 -7 18 -6 0 -5 6 2 15 11 13 10 18 -6 30 -10 9 -14
15 -9 14 31 -4 38 1 24 18 -8 10 -9 14 -2 10 6 -4 14 -3 18 3 3 5 0 10 -7 10
-9 0 -9 3 2 10 8 5 10 10 4 10 -6 0 -11 6 -11 13 0 16 28 18 42 3 5 -6 10 -18
10 -26 0 -8 7 -14 15 -12 12 3 13 1 3 -9 -18 -18 -16 -34 2 -19 13 11 14 10
10 -2 -3 -8 1 -30 9 -50 8 -19 12 -39 8 -43 -4 -5 -1 -5 6 -1 7 4 12 2 12 -5
0 -8 5 -8 18 2 14 11 13 10 -2 -9 -13 -15 -15 -22 -6 -22 10 0 9 -4 -1 -17 -8
-9 -9 -14 -4 -11 6 4 17 3 25 -3 9 -5 10 -9 3 -9 -14 0 -11 -49 4 -58 6 -4 9
-15 7 -24 -1 -10 2 -18 7 -18 5 0 9 -10 9 -23 0 -52 5 -77 13 -77 5 0 3 -8 -4
-17 -12 -15 -12 -16 6 -9 11 5 25 9 32 9 7 0 11 16 10 44 -1 24 2 43 6 43 5 0
5 5 1 12 -5 7 -8 28 -7 48 0 19 -4 41 -11 49 -8 11 -8 13 1 8 14 -9 15 31 1
49 -5 7 -2 16 7 24 8 7 12 17 8 23 -4 6 -5 32 -3 57 1 25 3 55 3 68 1 12 4 22
7 22 3 0 5 14 4 30 -1 17 2 30 7 30 4 0 6 6 3 14 -3 8 -1 17 4 20 5 3 8 -6 6
-19 -1 -17 3 -25 12 -25 9 0 12 -4 9 -10 -3 -6 1 -7 9 -4 9 3 14 11 13 17 -1
7 4 11 12 9 12 -3 12 0 1 12 -7 9 -8 16 -2 16 6 0 9 10 8 23 -2 12 1 32 5 42
7 18 8 18 8 -3 1 -13 4 -21 9 -19 6 5 10 -30 15 -140 1 -24 5 -43 8 -43 3 0 4
-14 3 -30 -1 -20 3 -30 12 -30 8 0 14 -4 14 -10 0 -5 5 -10 11 -10 5 0 7 4 4
10 -3 5 -2 10 2 10 5 0 9 9 9 20 0 11 -4 20 -9 20 -5 0 1 9 14 21 20 17 21 20
5 14 -19 -6 -19 -5 -2 14 10 11 16 27 13 36 -4 8 -1 15 5 15 7 0 6 6 -2 16
-11 12 -11 15 0 12 9 -2 14 7 15 27 0 17 4 36 8 43 5 6 6 12 3 12 -3 0 -1 11
4 25 6 16 6 25 0 25 -6 0 -10 5 -10 11 0 5 4 8 8 5 4 -2 8 4 8 15 0 10 -5 19
-11 19 -6 0 -6 3 1 8 11 7 27 137 24 192 -1 14 -2 30 -1 35 0 6 3 50 6 99 4
59 2 93 -6 102 -9 10 -8 15 2 19 15 5 19 78 6 91 -4 4 -7 12 -7 18 0 6 5 4 10
-4 8 -13 10 -12 10 4 0 10 -8 25 -17 32 -17 13 -17 14 0 8 12 -4 17 -1 17 11
0 10 -5 14 -12 10 -7 -4 -4 1 6 9 11 9 14 16 7 16 -7 0 -9 5 -6 10 3 6 0 10
-7 10 -10 0 -10 2 1 9 8 5 12 19 9 35 -3 15 -1 26 6 26 7 0 7 3 -1 8 -12 7
-11 41 1 60 2 4 1 14 -4 22 -5 9 -5 19 2 27 7 9 7 13 -1 13 -7 0 -10 4 -7 9 9
14 15 132 7 127 -4 -3 -8 1 -8 9 0 8 4 12 8 10 3 -3 9 6 11 20 5 22 3 23 -15
13 -20 -11 -20 -11 0 15 14 19 19 37 16 62 -2 24 1 35 9 35 8 0 6 5 -5 11 -9
5 -22 7 -27 4 -14 -8 -1 25 19 50 15 18 15 19 -1 6 -15 -11 -18 -11 -18 1 0 8
3 18 7 22 5 4 8 13 8 19 1 7 7 11 14 9 7 -1 10 2 6 8 -4 7 -12 7 -25 0 -16 -8
-18 -8 -14 5 4 8 11 15 18 15 7 0 7 3 1 8 -5 4 -11 21 -12 37 -1 28 -1 29 9 8
6 -13 20 -23 30 -23 11 0 17 -4 14 -9 -3 -5 2 -8 12 -7 9 0 16 -4 15 -9 -1 -6
9 -11 23 -11 13 0 24 4 24 9 0 4 4 6 9 2 5 -3 12 -1 16 5 3 5 14 10 23 10 9 0
28 7 42 15 73 42 116 47 189 20 42 -14 131 -94 131 -117 0 -6 14 -7 38 -3 20
4 44 8 52 10 8 1 21 -3 29 -9 11 -8 13 -8 7 2 -4 7 16 -1 44 -18 28 -16 62
-30 76 -30 32 0 53 -21 56 -54 1 -14 4 -23 6 -21 7 6 78 -34 97 -55 11 -12 17
-35 17 -59 -1 -30 7 -49 29 -77 16 -21 27 -44 24 -51 -2 -8 -1 -12 4 -9 5 3
12 -1 15 -10 4 -10 2 -13 -6 -8 -7 5 -8 3 -2 -7 5 -8 9 -16 9 -19 3 -20 18
-50 25 -50 13 0 61 -47 64 -62 1 -7 5 -18 8 -24 4 -6 9 -21 12 -35 13 -71 17
-75 84 -109 37 -18 79 -46 93 -61 15 -16 29 -25 33 -22 3 3 6 1 6 -6 0 -7 5
-9 10 -6 6 3 10 0 10 -7 0 -9 3 -9 10 2 6 9 10 10 10 3 0 -6 14 -27 30 -45 17
-18 30 -38 30 -44 0 -7 7 -15 16 -18 8 -3 13 -10 10 -15 -3 -4 3 -19 14 -31
11 -13 20 -31 20 -41 0 -10 5 -21 12 -25 7 -5 8 -3 3 6 -5 9 -4 11 4 6 10 -7
40 -67 45 -91 1 -5 5 -16 9 -22 5 -8 3 -13 -5 -13 -7 0 -5 -5 6 -11 15 -9 16
-13 5 -20 -11 -7 -11 -9 -1 -9 7 0 11 -4 8 -8 -2 -4 -1 -14 5 -22 5 -10 9 -10
9 -3 0 7 9 10 21 8 12 -3 19 -2 16 2 -4 3 1 19 9 35 16 30 20 43 33 108 7 34
5 123 -3 165 -5 28 11 44 37 38 27 -7 67 -42 67 -60 0 -7 4 -13 8 -13 11 0 32
-60 38 -107 2 -21 6 -47 9 -58 2 -11 4 -23 4 -27 2 -13 31 -2 55 21 30 28 52
102 59 200 3 39 -1 48 -33 82 -19 21 -36 47 -37 58 -1 12 -9 28 -17 36 -8 9
-12 23 -9 32 4 10 2 14 -4 10 -6 -4 -13 0 -17 8 -3 8 -12 12 -21 9 -8 -3 -15
-1 -15 6 0 6 -4 8 -10 5 -6 -3 -10 -1 -10 4 0 6 -7 11 -16 11 -8 0 -22 6 -29
14 -12 12 -12 16 0 26 8 6 18 9 24 6 5 -4 7 3 3 16 -4 16 -2 19 9 13 8 -5 11
-4 6 0 -7 8 9 39 40 74 11 13 16 45 19 104 3 71 0 89 -15 109 -10 12 -26 38
-35 56 -9 18 -21 30 -25 27 -18 -11 -52 31 -57 70 -9 68 -11 165 -4 165 4 0
11 15 14 33 15 79 99 207 137 207 4 0 11 9 14 21 4 11 9 18 12 16 2 -3 15 5
28 17 43 39 52 44 66 36 7 -5 17 -6 23 -3 5 4 7 -1 2 -12 -5 -15 -4 -16 9 -5
9 7 15 9 14 4 -4 -21 2 -35 11 -29 6 3 10 1 10 -5 0 -6 4 -9 10 -5 5 3 17 2
27 -3 10 -5 36 -15 58 -21 48 -15 129 -53 133 -63 2 -5 8 -8 13 -8 24 0 122
-84 111 -95 -4 -4 -2 -6 3 -5 21 5 36 0 30 -10 -3 -5 -1 -10 4 -10 6 0 11 -7
11 -16 0 -8 5 -12 10 -9 6 3 10 1 10 -6 0 -7 8 -5 20 6 16 14 17 20 8 27 -10
6 -10 8 1 8 11 0 11 3 0 17 -12 15 -12 16 1 8 13 -7 13 -6 2 7 -9 11 -9 17 -2
20 7 2 5 17 -6 43 -20 47 -35 117 -23 110 4 -3 10 -1 14 5 10 17 153 -1 165
-21 4 -6 9 -10 11 -8 9 5 49 -13 49 -22 0 -5 5 -9 11 -9 6 0 31 -20 55 -44 23
-24 45 -41 48 -38 3 3 6 -4 6 -16 0 -12 4 -22 8 -22 5 0 14 -10 20 -23 10 -20
11 -19 11 15 1 20 -3 40 -9 43 -5 3 -10 15 -10 25 0 10 -7 25 -15 33 -8 8 -11
17 -8 21 4 3 1 6 -5 6 -7 0 -12 7 -12 15 0 8 -4 15 -10 15 -5 0 -10 10 -10 22
0 16 3 19 11 11 7 -7 23 -8 47 -1 62 15 66 15 87 8 11 -4 38 -10 60 -13 22 -3
53 -10 68 -16 15 -6 27 -8 27 -5 0 4 6 2 13 -4 15 -12 94 -39 139 -48 39 -7
198 -7 249 0 50 7 160 36 183 48 19 10 19 11 0 25 -10 8 -30 13 -44 12 -14 0
-28 0 -32 1 -5 1 -11 3 -15 5 -52 14 -63 18 -63 26 0 8 15 13 33 10 4 0 7 4 7
9 0 6 9 10 19 10 11 0 26 8 33 18 7 9 20 18 28 20 8 2 18 8 21 14 3 5 9 9 13
9 3 -1 7 2 7 7 1 4 10 13 20 20 11 7 19 24 19 38 0 13 4 24 9 24 10 0 -1 53
-19 93 -7 15 -20 27 -27 27 -8 0 -12 3 -10 8 6 9 -45 8 -61 -2 -6 -3 -14 -2
-17 4 -5 8 -11 8 -20 0 -8 -7 -19 -9 -24 -6 -5 4 -12 2 -16 -4 -7 -12 -25 -4
-25 11 0 6 5 7 12 3 7 -5 8 -3 3 6 -5 8 -10 34 -11 59 -5 60 -7 72 -22 96 -11
18 -12 17 -7 -10 3 -16 2 -24 -1 -17 -9 18 -27 14 -20 -5 4 -9 2 -19 -3 -23
-6 -3 -11 -20 -13 -37 -1 -22 -6 -29 -17 -25 -8 3 -12 1 -9 -4 7 -11 -47 -66
-56 -57 -3 4 -6 -1 -6 -11 0 -9 -4 -15 -9 -11 -5 3 -12 1 -16 -5 -4 -6 -11 -8
-16 -5 -5 4 -9 1 -9 -6 0 -7 -3 -9 -7 -6 -3 4 -11 3 -17 -2 -28 -23 -188 -31
-213 -11 -2 2 -11 3 -20 4 -58 7 -125 20 -173 34 -30 9 -59 17 -65 18 -5 2
-33 9 -62 17 -28 8 -54 12 -57 9 -3 -3 -6 0 -6 6 0 7 -13 12 -30 12 -16 0 -30
5 -30 12 0 6 -3 9 -6 5 -12 -12 -203 61 -234 90 -5 5 30 27 43 28 4 0 12 6 16
14 5 7 14 10 20 7 10 -7 16 7 11 29 -1 6 4 4 11 -2 20 -20 54 14 36 35 -9 13
-9 14 1 8 6 -4 12 -2 12 3 0 6 5 11 11 11 5 0 7 -5 3 -12 -4 -7 -3 -8 4 -4 6
4 8 14 5 23 -3 9 0 21 8 27 8 6 20 21 27 34 19 34 -11 29 -61 -12 -57 -45 -85
-59 -132 -65 -82 -9 -195 -3 -195 12 0 4 -5 5 -10 2 -6 -4 -16 -3 -23 3 -7 5
-39 19 -72 32 -88 35 -153 79 -138 94 4 3 0 6 -8 6 -14 0 -95 118 -91 133 1 4
-3 7 -8 7 -6 0 -10 9 -10 20 0 11 -5 20 -11 20 -5 0 -7 5 -4 10 3 6 1 10 -5
10 -7 0 -9 7 -6 16 4 11 2 15 -7 11 -8 -3 -13 3 -14 17 0 11 1 15 4 9 9 -24
22 -13 17 15 -3 19 -2 23 5 12 5 -8 8 -17 6 -20 -2 -3 8 -5 21 -5 20 0 22 2
10 11 -12 8 -9 11 15 11 19 0 25 -3 17 -9 -7 -4 -8 -8 -2 -8 5 0 15 5 22 12 7
7 12 8 12 4 0 -5 6 -3 14 3 9 8 16 8 20 2 8 -12 45 19 39 32 -2 4 3 7 11 7 9
0 16 5 16 11 0 6 6 9 14 6 7 -3 23 1 34 9 16 11 21 11 25 1 3 -7 6 -4 6 6 1
10 5 16 10 12 5 -3 13 0 16 6 4 5 13 8 21 5 8 -3 14 -1 14 4 0 5 12 9 27 8 14
-2 28 2 30 9 2 6 13 8 25 5 14 -3 19 -1 14 6 -4 7 1 10 14 7 17 -3 20 0 18 18
-4 31 -28 56 -46 49 -9 -3 -13 -1 -9 5 6 9 -36 24 -59 22 -4 0 -10 5 -15 13
-5 7 -12 13 -16 13 -21 2 -73 37 -67 46 4 8 1 8 -13 1 -15 -9 -19 -7 -20 9 -2
18 -26 50 -38 49 -15 -1 -17 1 -8 13 6 6 9 22 8 34 -1 12 2 20 7 17 5 -4 7
-12 4 -20 -3 -7 -1 -16 5 -19 5 -4 7 -10 4 -15 -3 -5 0 -12 7 -16 7 -4 10 -4
6 1 -4 4 -2 15 5 23 9 13 9 14 0 8 -7 -4 -13 -2 -13 3 0 6 9 11 21 11 11 0 17
-5 14 -10 -7 -11 8 -14 19 -3 4 4 17 8 29 9 69 6 122 16 125 25 2 5 8 7 13 4
4 -3 19 1 32 10 13 8 27 12 32 8 4 -5 5 0 2 9 -4 12 -2 15 9 11 8 -3 21 0 29
7 8 7 15 9 15 6 0 -4 7 0 16 9 9 9 29 24 43 33 14 9 30 22 34 29 5 8 12 11 17
8 5 -3 11 -1 15 5 3 5 1 10 -5 10 -6 0 -9 4 -5 9 3 5 1 12 -5 16 -6 4 -8 10
-5 15 9 14 -17 17 -129 14 -61 -2 -114 0 -119 3 -6 3 -44 8 -86 10 -41 2 -78
8 -81 12 -3 5 -13 7 -22 5 -10 -1 -18 2 -18 7 0 6 -5 7 -10 4 -6 -4 -17 -1
-25 5 -8 7 -31 13 -51 15 -20 2 -38 6 -41 8 -2 3 -18 1 -35 -4 -18 -5 -36 -5
-42 0 -6 4 -23 7 -38 6 -15 -1 -25 2 -23 6 3 4 -8 14 -25 23 -17 8 -28 10 -25
5 8 -11 -27 -14 -81 -7 -11 1 -12 33 -2 44 4 3 4 12 2 18 -3 7 2 19 11 26 8 7
15 19 15 27 0 8 5 11 10 8 9 -6 15 16 11 39 -1 5 5 6 12 3 17 -6 18 24 2 35
-6 4 -2 8 8 8 10 0 15 4 12 10 -3 6 0 10 7 10 11 0 11 2 0 9 -10 6 -10 10 2
20 12 10 26 46 31 81 0 3 4 11 8 18 5 7 3 12 -5 12 -10 0 -10 2 -1 8 6 4 14
20 17 36 3 15 10 34 17 42 10 12 9 13 -4 8 -15 -5 -15 -3 -1 25 9 18 13 39 10
47 -3 8 -2 12 4 9 9 -5 15 15 11 38 0 4 3 7 9 7 5 0 7 7 4 15 -4 9 0 15 7 16
8 0 5 4 -6 9 -11 5 -14 9 -7 9 17 1 15 38 -2 44 -8 3 -17 -1 -20 -10 -4 -8
-13 -13 -21 -9 -9 3 -15 0 -15 -9 0 -7 -10 -17 -22 -21 -13 -4 -25 -10 -28
-14 -3 -4 -29 -22 -57 -40 -29 -17 -53 -36 -53 -41 0 -6 -4 -7 -10 -4 -5 3
-10 -1 -10 -9 0 -9 -4 -15 -8 -13 -4 1 -22 -13 -39 -30 -18 -18 -37 -33 -43
-33 -6 0 -8 -5 -4 -12 5 -8 2 -9 -11 -4 -15 5 -16 4 -5 -9 11 -13 10 -14 -5
-9 -12 5 -16 4 -12 -3 4 -6 -4 -14 -18 -17 -23 -6 -24 -9 -14 -29 9 -18 9 -20
-1 -10 -19 17 -58 -27 -55 -60 2 -20 -1 -24 -16 -20 -21 6 -22 10 -19 65 1 37
-18 108 -30 108 -4 0 -7 6 -8 13 -2 33 -9 64 -15 74 -4 6 -17 42 -28 80 -12
37 -26 77 -32 88 -6 11 -12 22 -13 25 -4 19 -19 48 -33 64 -9 10 -14 19 -12
20 2 0 -7 24 -20 51 -22 49 -25 56 -28 73 -2 14 -51 34 -51 21 0 -6 -4 -8 -9
-4 -6 3 -9 -3 -9 -12 4 -68 -38 -233 -63 -248 -5 -4 -9 -17 -9 -30 0 -13 -4
-27 -10 -30 -5 -3 -10 -11 -10 -16 0 -6 5 -7 10 -4 6 3 10 2 10 -3 0 -5 -10
-12 -22 -16 -32 -8 -40 -7 -33 3 7 13 -24 43 -37 35 -6 -4 -8 -3 -5 3 4 5 -9
22 -28 38 -37 29 -46 49 -18 38 10 -4 14 -2 9 5 -3 6 3 16 14 22 11 6 18 15
15 21 -4 5 -3 9 2 8 19 -3 34 2 29 10 -3 5 6 17 19 27 15 11 27 33 31 54 3 19
13 58 22 85 9 28 15 53 14 58 -1 4 2 7 7 7 8 0 19 37 37 120 11 54 12 285 0
292 -8 6 -7 8 2 8 9 0 10 6 4 18 -4 9 -8 28 -7 42 1 14 -3 31 -8 38 -6 7 -6
12 0 12 11 0 10 90 0 107 -4 7 -4 14 1 17 5 3 7 20 4 38 -2 18 -6 62 -9 98 -3
36 -9 67 -14 68 -6 2 -5 10 2 18 6 8 8 14 4 14 -4 0 -1 7 6 16 7 9 14 22 15
30 1 7 12 27 24 44 12 16 18 30 15 30 -3 0 3 13 14 29 12 16 22 37 24 47 1 11
6 25 10 32 5 7 11 24 13 39 3 14 11 38 19 54 8 15 17 38 19 51 3 13 5 24 7 26
1 1 3 7 4 12 1 6 3 11 5 13 3 4 9 42 12 74 1 17 6 29 10 27 4 -3 8 -2 9 3 0 4
2 16 4 26 2 9 -1 15 -5 12 -5 -3 -5 7 -1 22 4 16 6 34 3 42 -3 9 0 11 8 6 9
-6 9 -3 1 14 -9 16 -9 21 0 21 9 0 8 4 0 14 -10 11 -8 17 6 25 10 6 12 11 6
11 -7 0 -13 9 -13 21 0 13 4 18 12 13 7 -5 8 -3 3 6 -10 16 -13 60 -5 60 5 0
5 40 -1 156 -1 28 2 57 6 64 6 9 4 11 -4 5 -9 -5 -12 -1 -10 11 1 11 -1 27 -6
37 -4 9 -5 24 -1 32 3 8 2 15 -3 15 -4 0 -8 6 -9 13 -1 6 -3 36 -6 66 -2 29
-10 57 -17 62 -10 6 -10 11 2 25 8 10 9 15 2 11 -13 -8 -28 27 -18 43 3 5 1
10 -4 10 -6 0 -11 9 -11 21 0 13 -4 18 -12 13 -9 -5 -9 -3 1 9 11 14 11 18 -4
23 -13 5 -14 9 -3 15 10 6 8 9 -7 9 -17 0 -17 2 -5 10 10 6 11 10 3 10 -7 0
-13 9 -13 20 0 11 -6 20 -12 20 -10 0 -10 2 0 9 10 6 8 10 -8 14 -18 5 -20 9
-10 26 12 23 1 28 -19 9 -8 -7 -5 0 5 17 11 16 14 26 7 22 -15 -9 -37 28 -27
45 4 7 3 8 -4 4 -11 -7 -17 6 -13 27 1 5 -3 6 -9 2 -5 -3 -10 -1 -10 5 0 15
-26 41 -34 33 -3 -4 -6 -1 -6 5 0 5 6 13 13 15 6 3 2 6 -11 6 -15 1 -21 5 -16
13 5 7 2 9 -8 5 -10 -3 -15 0 -14 11 0 9 -5 16 -12 14 -6 -1 -11 1 -10 5 4 14
-13 53 -21 49 -4 -3 -13 -1 -21 5 -13 7 -13 9 0 9 9 0 3 8 -13 19 -16 10 -29
22 -29 27 0 5 -2 11 -5 14 -4 3 -3 -1 1 -7 4 -7 2 -13 -3 -13 -6 0 -11 9 -11
19 0 21 -16 35 -40 36 -8 0 -15 5 -15 12 0 6 -4 15 -9 20 -5 5 -6 3 -2 -4 4
-7 2 -13 -3 -13 -6 0 -11 5 -11 11 0 5 -5 7 -12 3 -7 -5 -8 -3 -4 5 5 8 0 14
-13 18 -12 3 -21 9 -21 14 0 5 -9 9 -20 9 -11 0 -20 4 -20 10 0 5 -7 7 -15 4
-10 -4 -15 0 -16 12 0 12 -3 14 -6 6 -4 -10 -12 -7 -30 10 -13 13 -25 21 -26
19 -1 -2 -12 -1 -25 3 -12 4 -20 11 -17 16 3 4 -4 6 -15 3 -12 -3 -20 0 -20 6
0 7 -4 9 -10 6 -5 -3 -10 -2 -10 4 0 5 -13 12 -30 16 -16 4 -30 11 -30 17 0 6
-8 8 -19 5 -12 -3 -18 1 -17 12 1 11 -6 16 -21 15 -13 -1 -23 2 -23 6 0 4 -11
8 -25 8 -15 0 -22 -5 -18 -12 3 -6 0 -6 -8 2 -13 12 -33 13 -76 5z m-1276
-219 c-3 -3 -12 -4 -19 -1 -8 3 -5 6 6 6 11 1 17 -2 13 -5z m38 -14 c-11 -12
-13 -20 -6 -20 7 0 9 -5 6 -10 -4 -6 -12 -5 -21 4 -15 16 -19 30 -5 22 5 -3
14 1 21 9 7 8 15 15 18 15 3 0 -3 -9 -13 -20z m-70 -19 c-6 -5 -25 10 -25 20
0 5 6 4 14 -3 8 -7 12 -15 11 -17z m1670 -40 c3 -5 2 -12 -3 -15 -5 -3 -9 1
-9 9 0 17 3 19 12 6z m45 5 c0 -2 -8 -10 -17 -17 -16 -13 -17 -12 -4 4 13 16
21 21 21 13z m31 -23 c12 -16 12 -17 -2 -6 -9 7 -20 9 -24 5 -5 -4 -5 -1 -1 6
9 16 11 15 27 -5z m-125 -31 c-17 -16 -18 -16 -5 5 7 12 15 20 18 17 3 -2 -3
-12 -13 -22z m68 -12 c-6 -6 -10 -3 -10 10 0 13 4 16 10 10 7 -7 7 -13 0 -20z
m-41 -25 c-3 -9 -8 -14 -10 -11 -3 3 -2 9 2 15 9 16 15 13 8 -4z m64 -12 c0
-8 -4 -10 -12 -3 -7 5 -16 6 -20 2 -5 -4 -5 -2 -2 4 9 15 34 13 34 -3z m63 -9
c0 -8 -19 -13 -24 -6 -3 5 1 9 9 9 8 0 15 -2 15 -3z m-65 -23 c3 -5 2 -12 -3
-15 -5 -3 -9 1 -9 9 0 17 3 19 12 6z m-120 -21 c3 -5 1 -10 -4 -10 -6 0 -11 5
-11 10 0 6 2 10 4 10 3 0 8 -4 11 -10z m165 0 c0 -5 -2 -10 -4 -10 -3 0 -8 5
-11 10 -3 6 -1 10 4 10 6 0 11 -4 11 -10z m195 -108 c-3 -3 -11 0 -18 7 -9 10
-8 11 6 5 10 -3 15 -9 12 -12z m-428 -888 c-3 -3 -12 -4 -19 -1 -8 3 -5 6 6 6
11 1 17 -2 13 -5z m-59 -39 c-3 -3 -9 2 -12 12 -6 14 -5 15 5 6 7 -7 10 -15 7
-18z m-1308 -5 c0 -5 -2 -10 -4 -10 -3 0 -8 5 -11 10 -3 6 -1 10 4 10 6 0 11
-4 11 -10z m40 -110 c8 -5 11 -10 5 -10 -5 0 -17 5 -25 10 -8 5 -10 10 -5 10
6 0 17 -5 25 -10z m10 -23 c12 4 12 3 2 -5 -8 -5 -13 -13 -12 -18 1 -5 -3 -10
-9 -12 -6 -2 -11 1 -11 8 0 6 5 8 12 4 7 -4 8 -3 4 4 -4 6 -13 9 -21 5 -10 -3
-15 1 -15 11 0 13 4 15 18 8 9 -5 24 -7 32 -5z m18 -32 c-6 -14 -13 -23 -15
-21 -5 5 15 46 22 46 3 0 -1 -11 -7 -25z m26 4 c-4 -8 1 -9 17 -5 24 7 24 7
-1 -8 -14 -8 -23 -18 -22 -23 13 -30 24 -43 34 -37 7 4 8 3 4 -4 -4 -7 -3 -12
2 -12 6 0 12 -7 16 -15 11 -29 -11 -14 -42 29 -17 24 -28 47 -24 51 4 3 8 11
8 16 2 16 4 19 10 19 3 0 2 -5 -2 -11z m1816 -1893 c0 -3 -4 -8 -10 -11 -5 -3
-10 -1 -10 4 0 6 5 11 10 11 6 0 10 -2 10 -4z m5 -74 c-3 -3 -11 0 -18 7 -9
10 -8 11 6 5 10 -3 15 -9 12 -12z m462 -167 c0 -8 -4 -12 -9 -9 -5 3 -6 10 -3
15 9 13 12 11 12 -6z m-17 -25 c0 -5 -2 -10 -4 -10 -3 0 -8 5 -11 10 -3 6 -1
10 4 10 6 0 11 -4 11 -10z m-32 -58 c2 -7 -1 -12 -8 -12 -6 0 -9 4 -6 9 4 5 1
12 -4 14 -6 3 -5 4 2 3 6 -1 14 -8 16 -14z m1172 -1427 c0 -2 -6 -8 -13 -14
-10 -8 -14 -7 -14 2 0 8 6 14 14 14 7 0 13 -1 13 -2z m-5055 -654 c10 -17 -12
-21 -25 -6 -10 12 -10 15 3 15 9 0 18 -4 22 -9z m2529 -356 c-4 -8 -13 -15
-22 -15 -13 0 -12 3 4 15 24 18 25 18 18 0z m0 -47 c-3 -31 -3 -30 -14 -23 -7
4 -7 13 0 26 14 25 17 24 14 -3z m1669 -332 c1 -46 -2 -67 -11 -71 -8 -3 -10
0 -6 8 5 8 2 7 -9 -2 -11 -9 -17 -10 -17 -2 0 6 -7 11 -16 11 -8 0 -12 5 -9
10 3 6 1 10 -4 10 -6 0 -11 5 -11 11 0 5 4 8 9 4 5 -3 13 0 17 6 4 8 3 9 -4 5
-19 -11 -14 9 8 34 11 13 20 27 20 32 0 5 5 6 12 2 8 -5 9 -1 4 12 -5 14 -4
16 4 8 6 -6 12 -41 13 -78z m17 -366 c0 -5 -5 -10 -11 -10 -5 0 -7 5 -4 10 3
6 8 10 11 10 2 0 4 -4 4 -10z m-1802 -766 c-4 -3 -12 5 -18 18 -12 22 -12 22
6 6 10 -10 15 -20 12 -24z m-503 17 c3 -5 2 -12 -3 -15 -5 -3 -9 1 -9 9 0 17
3 19 12 6z m199 -17 c3 -8 2 -12 -4 -9 -6 3 -10 10 -10 16 0 14 7 11 14 -7z
m108 -301 c-6 -2 -9 -10 -6 -15 4 -7 2 -8 -5 -4 -13 9 -5 26 12 25 9 0 8 -2
-1 -6z"/>
<path d="M2430 7736 c0 -2 8 -10 18 -17 15 -13 16 -12 3 4 -13 16 -21 21 -21
13z"/>
<path d="M5411 6071 c-18 -23 -30 -41 -27 -41 3 0 -1 -18 -9 -39 -7 -22 -12
-41 -10 -43 2 -1 6 -21 9 -43 4 -22 11 -44 16 -49 6 -6 10 -18 10 -28 0 -10 5
-18 11 -18 5 0 8 -4 5 -9 -3 -5 1 -25 9 -45 9 -20 13 -41 10 -46 -3 -5 -1 -11
4 -14 5 -4 8 -21 7 -39 -2 -17 1 -37 6 -44 5 -6 11 -29 12 -50 2 -21 4 -40 5
-43 2 -13 40 -7 45 6 3 9 11 12 17 9 6 -4 20 1 32 11 23 20 38 29 127 77 30
16 60 34 66 38 6 5 20 10 31 12 12 2 27 8 35 14 7 6 22 13 34 17 11 3 34 20
50 38 16 17 23 27 15 23 -12 -7 -12 -4 1 13 13 20 13 27 -2 73 -10 28 -22 54
-27 58 -6 3 -9 15 -8 26 1 18 -4 20 -52 18 -57 -2 -123 -19 -123 -33 0 -14
-31 -20 -52 -9 -11 6 -17 17 -14 25 3 9 1 12 -4 9 -6 -3 -10 4 -10 15 0 21
-33 77 -53 91 -5 3 -8 9 -8 13 3 20 -1 26 -14 26 -8 0 -15 4 -15 9 0 12 -80 8
-80 -4 0 -5 -4 -4 -9 3 -6 10 -16 3 -40 -27z"/>
<path d="M5317 4689 c7 -7 15 -10 18 -7 3 3 -2 9 -12 12 -14 6 -15 5 -6 -5z"/>
<path d="M5620 4406 c0 -2 7 -7 16 -10 8 -3 12 -2 9 4 -6 10 -25 14 -25 6z"/>
<path d="M41 2706 c-9 -11 -8 -15 5 -20 21 -8 34 1 27 19 -7 19 -17 19 -32 1z"/>
<path d="M6476 2382 c-2 -4 5 -19 16 -32 l20 -25 -16 27 c-12 20 -12 28 -3 31
9 4 9 6 0 6 -6 1 -14 -3 -17 -7z"/>
<path d="M2443 2041 c-8 -13 -9 -21 -2 -23 6 -2 1 -14 -10 -26 -13 -15 -18
-33 -16 -53 2 -16 0 -27 -5 -24 -5 3 -7 -4 -5 -15 2 -11 -1 -20 -7 -20 -7 0
-6 -5 1 -14 8 -10 9 -16 1 -21 -6 -3 -8 -10 -5 -15 4 -7 13 -7 44 -1 2 1 -2 7
-8 14 -6 8 -7 18 -3 22 4 5 2 5 -5 1 -8 -4 -11 1 -10 14 1 11 5 20 9 20 4 0 8
8 8 18 0 10 3 22 7 26 7 7 13 42 14 79 0 9 4 15 9 12 6 -3 7 1 4 9 -8 20 -7
20 -21 -3z m-7 -76 c-1 -8 -5 -17 -8 -21 -5 -4 -4 16 1 34 3 9 9 -1 7 -13z
m-12 -123 c3 -5 -1 -9 -9 -9 -8 0 -12 4 -9 9 3 4 7 8 9 8 2 0 6 -4 9 -8z"/>
<path d="M2342 2025 c9 -9 -9 -35 -24 -35 -6 0 -4 8 3 18 13 15 12 16 -3 4 -9
-8 -14 -20 -11 -28 7 -20 15 -17 36 11 13 18 14 25 5 31 -7 4 -10 4 -6 -1z"/>
<path d="M2140 1970 c-6 -11 -8 -20 -6 -20 3 0 10 9 16 20 6 11 8 20 6 20 -3
0 -10 -9 -16 -20z"/>
<path d="M2200 1980 c-13 -8 -12 -10 3 -10 9 0 17 5 17 10 0 12 -1 12 -20 0z"/>
<path d="M2270 1980 c0 -6 4 -9 9 -6 5 4 12 1 14 -4 3 -6 4 -5 3 2 -3 15 -26
23 -26 8z"/>
<path d="M2343 1975 c-3 -9 -3 -18 -1 -21 3 -3 8 4 11 16 6 23 -1 27 -10 5z"/>
<path d="M1948 1973 c6 -2 10 -9 7 -14 -4 -5 1 -6 10 -2 13 5 14 7 3 14 -7 5
-17 8 -23 8 -5 0 -4 -3 3 -6z"/>
<path d="M2106 1968 c3 -5 10 -6 15 -3 13 9 11 12 -6 12 -8 0 -12 -4 -9 -9z"/>
<path d="M1912 1961 c-11 -6 -10 -10 4 -15 9 -3 19 -4 22 -1 3 3 0 5 -7 5 -7
0 -9 5 -6 10 7 12 4 12 -13 1z"/>
<path d="M2097 1949 c7 -7 15 -10 18 -7 3 3 -2 9 -12 12 -14 6 -15 5 -6 -5z"/>
<path d="M2200 1950 c-8 -5 -12 -11 -10 -14 3 -2 14 2 24 10 22 15 10 19 -14
4z"/>
<path d="M2243 1947 c-3 -6 -1 -7 5 -3 19 11 14 -9 -6 -27 -23 -21 -39 -22
-22 -2 9 10 9 15 1 15 -6 0 -11 -5 -11 -11 0 -5 -4 -8 -8 -5 -5 3 -9 -1 -9 -9
0 -8 4 -12 9 -9 15 9 4 -30 -11 -42 -11 -9 -12 -12 -1 -19 9 -5 11 -4 6 3 -4
7 -1 12 6 12 8 0 14 -9 15 -19 1 -13 -3 -18 -11 -15 -8 3 -16 -1 -19 -9 -3 -9
2 -17 14 -20 10 -3 17 -1 14 3 -3 5 -1 11 5 15 5 3 8 16 6 28 -2 12 4 31 12
42 10 12 11 15 2 8 -23 -21 -35 -15 -15 7 10 11 22 17 27 14 4 -3 8 -2 7 3 -4
22 2 25 15 7 20 -26 44 -6 27 23 -6 10 -11 12 -11 6 0 -7 -5 -13 -11 -13 -6 0
-9 6 -6 13 6 16 -21 19 -30 4z m57 -27 c0 -5 -5 -10 -11 -10 -5 0 -7 5 -4 10
3 6 8 10 11 10 2 0 4 -4 4 -10z"/>
<path d="M2310 1950 c0 -5 5 -10 10 -10 6 0 10 5 10 10 0 6 -4 10 -10 10 -5 0
-10 -4 -10 -10z"/>
<path d="M1890 1929 c0 -5 -4 -7 -10 -4 -6 4 -7 -1 -3 -11 4 -11 8 -13 11 -6
2 7 7 10 11 8 4 -3 8 1 8 9 0 8 -4 15 -9 15 -4 0 -8 -5 -8 -11z"/>
<path d="M2045 1930 c-6 -10 11 -50 21 -50 3 0 2 5 -1 11 -4 5 0 18 9 28 14
15 14 17 -4 18 -11 1 -22 -2 -25 -7z m25 -4 c0 -3 -4 -8 -10 -11 -5 -3 -10 -1
-10 4 0 6 5 11 10 11 6 0 10 -2 10 -4z"/>
<path d="M1940 1914 c0 -5 7 -18 15 -28 8 -11 15 -16 15 -10 0 5 -7 18 -15 28
-8 11 -15 16 -15 10z"/>
<path d="M1967 1909 c7 -7 15 -10 18 -7 3 3 -2 9 -12 12 -14 6 -15 5 -6 -5z"/>
<path d="M1909 1899 c-12 -7 -11 -9 3 -9 9 0 18 -6 21 -12 2 -7 7 -11 10 -8 3
3 0 13 -7 22 -8 11 -17 14 -27 7z"/>
<path d="M2319 1908 c-1 -2 -3 -12 -4 -23 -1 -15 4 -21 19 -22 12 -1 15 1 8 4
-6 3 -9 10 -6 15 4 7 2 8 -4 4 -7 -4 -12 -3 -12 3 0 5 6 12 13 14 10 4 10 6 0
6 -7 1 -14 0 -14 -1z"/>
<path d="M2025 1890 c-9 -14 4 -32 17 -24 6 4 9 1 6 -7 -3 -8 -10 -14 -16 -14
-7 0 -12 -4 -11 -9 0 -5 -5 -13 -13 -18 -10 -8 -10 -9 2 -5 20 6 52 -11 45
-24 -4 -5 -1 -9 4 -9 6 0 11 5 11 10 0 6 0 12 0 15 0 3 -3 5 -6 4 -14 -2 -22
26 -13 38 13 15 2 36 -13 27 -7 -5 -9 -1 -5 9 7 19 2 23 -8 7z"/>
<path d="M1868 1883 c7 -3 16 -2 19 1 4 3 -2 6 -13 5 -11 0 -14 -3 -6 -6z"/>
<path d="M1906 1841 c-17 -19 -17 -19 1 -17 10 2 16 6 15 11 -2 4 2 12 10 16
7 5 8 9 2 9 -6 0 -19 -9 -28 -19z"/>
<path d="M2324 1838 c6 -28 18 -47 34 -53 13 -5 14 -3 5 6 -6 6 -10 17 -9 23
2 6 1 8 -1 3 -8 -13 -22 3 -16 18 3 8 1 15 -5 15 -6 0 -9 -6 -8 -12z"/>
<path d="M2120 1831 c0 -6 4 -13 10 -16 6 -3 7 1 4 9 -7 18 -14 21 -14 7z"/>
<path d="M2100 1820 c0 -5 0 -13 1 -16 0 -4 -5 -11 -13 -15 -7 -5 -8 -9 -3 -9
6 0 17 5 25 10 9 6 11 10 3 10 -7 0 -10 7 -7 15 4 8 3 15 0 15 -3 0 -6 -4 -6
-10z"/>
<path d="M1880 1797 c0 -5 9 -5 20 -2 13 4 22 1 25 -7 7 -19 42 -20 49 -2 3 9
11 12 18 8 10 -6 10 -4 1 6 -11 12 -16 11 -29 -6 -15 -18 -15 -18 -10 0 5 15
4 17 -8 7 -9 -8 -16 -8 -20 -2 -8 12 -46 10 -46 -2z"/>
<path d="M2408 1786 c16 -18 16 -19 -1 -13 -11 4 -16 3 -12 -4 10 -16 28 -5
31 18 3 16 -1 21 -16 20 -18 -1 -18 -2 -2 -21z"/>
<path d="M1900 1780 c0 -5 5 -10 11 -10 5 0 7 5 4 10 -3 6 -8 10 -11 10 -2 0
-4 -4 -4 -10z"/>
<path d="M2187 1769 c7 -7 15 -10 18 -7 3 3 -2 9 -12 12 -14 6 -15 5 -6 -5z"/>
<path d="M2340 1773 c5 -2 8 -9 4 -14 -3 -5 0 -9 6 -9 15 0 7 23 -8 26 -7 1
-8 0 -2 -3z"/>
<path d="M2186 1732 c-3 -5 -23 -8 -46 -7 -23 1 -40 -3 -40 -9 0 -6 -4 -5 -9
2 -7 11 -9 11 -14 -2 -4 -9 -12 -16 -18 -16 -8 0 -8 4 -1 13 8 10 6 13 -11 14
-17 2 -19 0 -7 -7 13 -8 13 -10 -2 -10 -9 0 -20 5 -23 10 -4 7 -11 7 -18 2 -7
-5 -20 -8 -29 -7 -10 2 -18 -2 -18 -9 0 -14 37 -15 58 -3 6 5 12 4 12 0 0 -11
58 -9 84 2 12 5 21 3 28 -6 8 -11 9 -10 4 4 -3 9 -1 17 4 17 6 0 10 -4 10 -8
0 -5 14 -9 30 -9 17 0 30 4 30 9 0 5 6 6 13 1 20 -13 55 -10 50 4 -4 9 0 11
11 7 9 -3 13 -10 10 -15 -9 -15 6 -10 24 8 13 13 13 15 2 11 -8 -3 -23 -1 -32
3 -10 6 -19 5 -23 -1 -5 -8 -12 -7 -23 2 -15 12 -16 11 -3 -4 9 -12 10 -18 2
-18 -6 0 -14 7 -17 15 -6 14 -8 13 -21 -2 -14 -17 -14 -17 -9 0 6 18 1 23 -8
9z"/>
<path d="M2433 1719 c-2 -23 3 -25 10 -4 4 8 3 16 -1 19 -4 3 -9 -4 -9 -15z"/>
<path d="M2340 1717 c0 -5 6 -7 13 -4 6 2 20 0 29 -4 11 -6 19 -5 24 3 4 7 3
8 -4 4 -7 -4 -12 -3 -12 1 0 5 -11 9 -25 9 -14 0 -25 -4 -25 -9z"/>
<path d="M1846 1711 c-3 -5 1 -14 9 -21 8 -7 15 -8 15 -3 0 5 9 9 20 10 11 1
18 -2 15 -7 -3 -4 5 -6 17 -2 21 5 21 6 2 12 -19 7 -19 7 1 13 14 3 12 4 -7 4
-16 -1 -28 -4 -28 -7 0 -3 -9 -6 -20 -7 -11 -1 -18 2 -15 8 4 5 4 9 1 9 -3 0
-7 -4 -10 -9z"/>
<path d="M1817 1704 c-3 -4 1 -13 9 -21 19 -20 26 -13 10 9 -7 10 -16 15 -19
12z"/>
<path d="M2334 1631 c6 -9 -22 -26 -36 -23 -15 3 -8 -16 8 -22 8 -3 12 -2 9 4
-7 11 29 32 41 22 5 -4 2 1 -5 11 -14 17 -27 24 -17 8z"/>
<path d="M2366 1627 c3 -10 9 -15 12 -12 3 3 0 11 -7 18 -10 9 -11 8 -5 -6z"/>
<path d="M2393 1623 c0 -12 5 -19 10 -16 5 3 7 0 5 -8 -3 -8 -11 -13 -17 -11
-7 1 -9 -3 -5 -9 4 -8 -1 -9 -17 -5 -13 3 -18 3 -11 0 6 -3 12 -12 12 -20 0
-10 9 -6 25 12 29 31 30 34 11 60 -14 19 -15 18 -13 -3z"/>
<path d="M2216 1615 c-9 -9 -16 -21 -16 -27 0 -6 8 0 18 13 13 15 21 19 26 11
4 -7 2 -12 -3 -12 -6 0 -11 -5 -11 -11 0 -5 5 -7 10 -4 6 3 10 1 10 -4 0 -6
-5 -11 -10 -11 -6 0 -10 -8 -8 -17 2 -10 -2 -17 -9 -16 -7 2 -10 -4 -7 -12 4
-8 14 -15 23 -15 14 0 14 2 1 10 -12 7 -12 10 -1 10 7 0 11 6 8 15 -4 8 -2 17
3 20 12 7 8 41 -7 56 -7 7 -15 5 -27 -6z"/>
<path d="M1873 1613 c-7 -3 -13 -12 -13 -21 1 -15 2 -15 11 1 6 10 15 14 22
10 7 -4 37 -8 67 -9 48 -2 52 0 36 12 -13 9 -24 10 -36 4 -10 -5 -19 -7 -21
-5 -7 7 -54 12 -66 8z"/>
<path d="M2054 1608 c-3 -4 -2 -13 2 -20 5 -8 2 -9 -10 -5 -9 4 -15 3 -12 -2
3 -5 -1 -11 -9 -15 -8 -3 -15 -11 -15 -18 0 -9 3 -10 8 -2 4 6 17 16 29 23 15
7 20 17 17 29 -3 9 5 4 20 -13 14 -16 22 -34 17 -40 -4 -5 -7 -24 -6 -42 2
-19 -2 -30 -9 -29 -6 2 -7 1 -3 -2 4 -2 0 -10 -10 -18 -17 -12 -16 -13 5 -7
12 3 22 10 22 15 0 5 4 7 9 4 5 -4 7 3 4 14 -3 13 0 20 8 20 11 0 11 2 -1 10
-10 7 -11 12 -4 18 6 4 10 19 10 34 0 22 -3 25 -13 16 -11 -9 -13 -6 -10 13 4
21 1 25 -20 25 -13 0 -27 -4 -29 -8z"/>
<path d="M2176 1602 c-2 -4 -1 -14 4 -22 7 -11 9 -9 7 8 -1 24 -3 26 -11 14z"/>
<path d="M1976 1568 c5 -7 1 -9 -12 -6 -15 4 -20 0 -22 -16 0 -11 2 -16 6 -10
4 6 15 13 25 17 18 7 24 27 6 27 -5 0 -7 -5 -3 -12z"/>
<path d="M2286 1571 c-4 -5 -2 -12 4 -16 6 -4 8 -11 5 -16 -4 -5 -1 -9 4 -9 6
0 10 9 8 20 -4 25 -13 34 -21 21z"/>
<path d="M2328 1548 c10 -13 10 -17 0 -20 -8 -3 -7 -6 3 -10 30 -12 37 7 10
27 -17 13 -22 14 -13 3z"/>
<path d="M2390 1545 c0 -5 5 -17 10 -25 5 -8 10 -10 10 -5 0 6 -5 17 -10 25
-5 8 -10 11 -10 5z"/>
<path d="M1890 1525 c6 -7 1 -16 -11 -24 -19 -11 -20 -10 -14 10 6 19 5 20 -8
8 -17 -16 -3 -44 17 -32 16 10 39 10 54 -1 9 -6 11 -4 6 8 -4 10 -13 15 -20
12 -8 -3 -11 0 -7 9 3 8 9 12 14 9 5 -3 9 -1 9 4 0 6 -11 9 -24 8 -16 0 -21
-5 -16 -11z"/>
<path d="M2003 1516 c6 -15 4 -17 -10 -11 -36 14 -52 14 -47 0 4 -9 18 -12 46
-10 32 3 37 1 28 -9 -8 -10 -7 -15 3 -19 20 -8 14 27 -8 49 -18 18 -19 18 -12
0z"/>
<path d="M2431 1516 c-6 -8 -10 -20 -9 -27 2 -8 -2 -13 -9 -12 -7 2 -10 -4 -7
-12 8 -20 9 -19 29 11 9 15 12 23 6 20 -6 -4 -11 -3 -11 3 0 5 6 11 13 14 6 2
9 7 6 11 -3 4 -11 0 -18 -8z"/>
<path d="M2053 1487 c-1 -11 -1 -18 0 -16 2 2 8 11 15 20 9 12 9 16 -1 16 -7
0 -14 -9 -14 -20z"/>
<path d="M2207 1487 c4 -18 3 -19 -7 -7 -9 12 -11 12 -8 1 2 -8 14 -15 26 -16
16 -1 19 2 12 10 -5 7 -7 14 -4 17 2 3 -2 8 -9 11 -11 4 -13 0 -10 -16z"/>
<path d="M2320 1503 c13 -6 13 -30 -1 -35 -7 -2 -6 -8 3 -15 11 -10 14 -6 13
19 0 17 -6 32 -13 34 -7 1 -8 0 -2 -3z"/>
<path d="M2375 1470 c-4 -6 -11 -8 -16 -5 -5 4 -9 2 -9 -3 0 -15 32 -24 44
-12 8 8 5 9 -9 4 -18 -7 -18 -6 -6 9 7 9 11 17 8 17 -3 0 -9 -5 -12 -10z"/>
<path d="M2196 1438 c3 -5 10 -6 15 -3 13 9 11 12 -6 12 -8 0 -12 -4 -9 -9z"/>
<path d="M3836 667 c3 -10 9 -15 12 -12 3 3 0 11 -7 18 -10 9 -11 8 -5 -6z"/>
<path d="M3662 338 c-15 -15 -15 -28 -1 -28 5 0 8 4 4 9 -3 5 3 11 12 13 11 2
14 6 7 10 -6 4 -16 2 -22 -4z"/>
</g>
</svg>
